<svg viewBox="28.032 34.56 458.752 446.464" xmlns="http://www.w3.org/2000/svg" data-name="Layer 1" id="Layer_1" style="max-height: 500px" width="458.752" height="446.464"><defs><style>.cls-1{fill:#00cf66;}.cls-2{fill:#00b157;}.cls-3{fill:#fac100;}.cls-4{fill:#ff9500;}.cls-5{fill:#eaeff0;}.cls-6{fill:#d9e1e2;}.cls-7{fill:#fd3730;}.cls-8{fill:#d3241f;}</style></defs><title>Shop</title><path style="fill: rgb(121, 202, 153);" id="id_120" d="M426.667,138.667H85.333a10.667,10.667,0,0,0-10.667,10.667V416A53.394,53.394,0,0,0,128,469.333H384A53.394,53.394,0,0,0,437.333,416V149.333A10.667,10.667,0,0,0,426.667,138.667Z" class="cls-1"/><path style="fill: rgb(117, 191, 148);" id="id_121" d="M437.333,260.319V149.333a10.667,10.667,0,0,0-10.667-10.667H85.333a10.667,10.667,0,0,0-10.667,10.667V260.319a63.885,63.885,0,0,0,74.667-24.975,63.959,63.959,0,0,0,106.667,0,63.959,63.959,0,0,0,106.667,0,63.885,63.885,0,0,0,74.667,24.975Z" class="cls-2"/><path style="fill: rgb(141, 145, 212);" id="id_122" d="M245.333,469.333V298.667A10.667,10.667,0,0,0,234.667,288H160a10.667,10.667,0,0,0-10.667,10.667V469.333Z" class="cls-3"/><path style="fill: rgb(132, 134, 194);" id="id_123" d="M234.667,288H160a10.667,10.667,0,0,0-10.667,10.667V320A10.667,10.667,0,0,1,160,309.333h74.667A10.667,10.667,0,0,1,245.333,320V298.667A10.667,10.667,0,0,0,234.667,288Z" class="cls-4"/><rect id="id_124" ry="21.333" rx="21.333" height="64" width="64" y="288" x="298.667" class="cls-5"/><path id="id_125" d="M309.333,309.333H352A10.667,10.667,0,0,1,362.667,320V298.667A10.667,10.667,0,0,0,352,288H309.333a10.667,10.667,0,0,0-10.667,10.667V320A10.667,10.667,0,0,1,309.333,309.333Z" class="cls-6"/><path style="fill: rgb(141, 145, 212);" id="id_126" d="M475.635,154.341l-.005,0-33.8-90.833a32.14,32.14,0,0,0-29.99-20.839H100.156a32.139,32.139,0,0,0-29.99,20.841l-33.8,90.833c-4.2,11.313-4.6,23.32-1.125,33.81a63.995,63.995,0,0,0,114.094,15.193,63.959,63.959,0,0,0,106.667,0,63.959,63.959,0,0,0,106.667,0A63.995,63.995,0,0,0,476.76,188.151C480.24,177.661,479.839,165.654,475.635,154.341Z" class="cls-7"/><path style="fill: rgb(130, 132, 186);" id="id_127" d="M36.365,154.341c-4.2,11.313-4.6,23.32-1.125,33.81a63.995,63.995,0,0,0,114.094,15.193,63.959,63.959,0,0,0,106.667,0,63.959,63.959,0,0,0,106.667,0A63.995,63.995,0,0,0,476.76,188.151c3.479-10.49,3.078-22.5-1.125-33.81l-.005,0-1.862-5.005H38.228Z" class="cls-8"/><path id="id_128" d="M475.63,154.339l-33.8-90.833a32.14,32.14,0,0,0-29.99-20.839h-68l17.525,99.309a85.4,85.4,0,0,1,1.3,14.83v46.539A63.995,63.995,0,0,0,476.76,188.151c3.479-10.49,3.078-22.5-1.125-33.81Z" class="cls-5"/><path id="id_129" d="M362.667,156.805v46.539A63.995,63.995,0,0,0,476.76,188.151c3.479-10.49,3.078-22.5-1.125-33.81l-.005,0-1.862-5.005H362.339Q362.665,153.058,362.667,156.805Z" class="cls-6"/><path id="id_130" d="M168.156,42.667l-17.525,99.309a85.4,85.4,0,0,0-1.3,14.83v46.539a63.959,63.959,0,0,0,106.667,0V42.667Z" class="cls-5"/><path id="id_131" d="M149.663,149.333q-.328,3.725-.329,7.472v46.539a63.959,63.959,0,0,0,106.667,0v-54.01Z" class="cls-6"/></svg>